<svg width="200" height="200" viewBox="0 0 512 512" fill="none" xmlns="http://www.w3.org/2000/svg">
<rect x="53.8535" y="52.8906" width="392.673" height="392.673" rx="32" stroke="white" stroke-opacity="0.7" stroke-width="6" stroke-linecap="round" stroke-linejoin="round" stroke-dasharray="20 20"/>
<g opacity="0.41">
<path d="M499.753 311.026C500.238 302.746 500.012 294.441 499.078 286.199C494.687 247.517 474.791 211.034 445.494 185.298C435.046 176.124 423.156 167.894 416.355 155.778C404.904 135.364 405.771 111.907 391.584 91.7743C377.19 71.4018 356.789 56.0087 333.216 47.7353C263.486 23.661 165.868 62.8941 174.661 146.671C174.661 146.975 174.729 147.413 174.762 147.963C175.028 152.074 174.455 156.196 173.08 160.08C171.704 163.965 169.553 167.531 166.757 170.563C163.962 173.596 160.579 176.032 156.813 177.725C153.047 179.418 148.976 180.333 144.846 180.414C80.5214 181.93 25.1477 231.392 13.2916 294.048C5.62395 334.348 18.1106 378.511 47.6665 407.054C69.7236 428.332 99.3245 440.022 128.937 448.05C188.319 464.152 250.808 467.532 312.037 461.379C369.347 455.607 429.799 439.179 466.865 395.208C486.636 371.717 497.963 341.636 499.753 311.026Z" fill="white" fill-opacity="0.27"/>
</g>
<path d="M127.158 300.121L78.2375 324.296C75.7389 325.531 74.6746 328.674 75.9093 331.173C77.144 333.672 80.2879 334.736 82.7866 333.501L104.222 322.908L119.472 330.59C122.842 332.278 123.3 332.543 127.114 330.658L151.574 318.571C154.073 317.336 156.668 316.462 159.36 315.95C160.208 317.004 160.925 318.122 161.542 319.372L162.679 321.673C163.914 324.172 167.058 325.236 169.556 324.001C172.055 322.767 173.119 319.623 171.885 317.124L170.715 314.757C162.655 298.778 143.202 292.192 127.158 300.121Z" fill="#FFE1D7"/>
<path d="M170.973 315.605C167.138 314.963 163.169 315.043 159.261 315.911C156.635 316.39 153.974 317.296 151.475 318.531L127.015 330.619C123.201 332.503 122.743 332.239 119.372 330.55L104.123 322.869C97.0548 319.326 91.9792 317.498 81.2613 322.795L66.0065 330.333C49.9626 338.262 43.377 357.715 51.3054 373.758L87.5679 447.14C95.4963 463.183 114.949 469.769 130.993 461.841L204.374 425.578C220.418 417.65 227.004 398.197 219.075 382.153L194.9 333.232C190.059 323.435 181.002 317.193 170.973 315.605ZM163.508 396.686L132.867 411.828C130.303 413.095 127.257 412.064 125.99 409.5C124.755 407.001 125.754 403.89 128.318 402.623L158.893 387.513C161.392 386.278 164.536 387.343 165.771 389.841C167.038 392.406 166.007 395.451 163.508 396.686Z" fill="#FFB49C"/>
<path d="M144.638 53.5527L89.5755 69.807C73.5372 74.5414 64.4035 91.4264 69.1188 107.4L87.1557 168.501C91.8709 184.474 108.775 193.673 124.748 188.958L179.746 172.723C195.784 167.988 204.918 151.103 200.203 135.13L182.166 74.0286C177.496 57.9712 160.611 48.8374 144.638 53.5527Z" fill="#FFE1B6"/>
<path d="M129.202 46.4622L98.6843 55.471C91.9313 57.4645 88.0222 64.5481 90.0157 71.301L91.8174 77.4046C93.8109 84.1576 100.875 88.0018 107.628 86.0084L138.211 76.9803C144.964 74.9869 148.808 67.9225 146.815 61.1695L145.013 55.0659C143.085 48.2938 135.955 44.4687 129.202 46.4622Z" fill="#FFB449"/>
<path d="M154.412 116.322L108.96 129.74C106.298 130.526 103.438 128.97 102.652 126.307C101.867 123.645 103.423 120.786 106.085 120L151.537 106.582C154.2 105.797 157.059 107.353 157.845 110.015C158.631 112.677 157.075 115.536 154.412 116.322Z" fill="#FFB449"/>
<path d="M145.066 147.313L116.626 155.709C113.964 156.494 111.104 154.938 110.318 152.276C109.533 149.614 111.089 146.755 113.751 145.969L142.191 137.573C144.853 136.787 147.713 138.343 148.499 141.006C149.284 143.668 147.728 146.527 145.066 147.313Z" fill="#FFB449"/>
<path d="M431.846 388.388L423.995 421.876C417.265 450.797 403.966 462.494 378.97 460.091C374.965 459.77 370.639 459.049 365.992 457.927L352.533 454.723C319.125 446.792 308.79 430.288 316.641 396.8L324.493 363.232C326.095 356.423 328.018 350.494 330.421 345.607C339.795 326.219 355.737 321.012 382.495 327.341L395.875 330.466C429.443 338.317 439.697 354.9 431.846 388.388Z" fill="#FCDDE2"/>
<path d="M378.97 460.093C374.003 463.458 367.754 466.262 360.143 468.745L347.485 472.911C315.68 483.166 298.936 474.594 288.601 442.788L278.346 411.143C268.092 379.338 276.584 362.514 308.389 352.259L321.047 348.093C324.332 347.051 327.457 346.17 330.421 345.609C328.017 350.496 326.095 356.425 324.492 363.235L316.641 396.802C308.79 430.29 319.125 446.794 352.532 454.725L365.992 457.93C370.638 459.051 374.964 459.772 378.97 460.093Z" fill="#F7A9B4"/>
<path d="M398.438 388.953C397.957 388.953 397.477 388.873 396.916 388.793L358.061 378.939C354.856 378.138 352.933 374.853 353.734 371.648C354.535 368.444 357.82 366.521 361.025 367.322L399.88 377.176C403.085 377.977 405.008 381.262 404.206 384.467C403.565 387.11 401.082 388.953 398.438 388.953Z" fill="#F7A9B4"/>
<path d="M374.964 416.028C374.484 416.028 374.003 415.947 373.442 415.867L350.129 409.939C346.924 409.138 345.002 405.853 345.803 402.648C346.604 399.444 349.889 397.521 353.093 398.322L376.406 404.251C379.611 405.052 381.534 408.337 380.733 411.541C380.092 414.265 377.688 416.028 374.964 416.028Z" fill="#F7A9B4"/>
<path fill-rule="evenodd" clip-rule="evenodd" d="M345.26 242.628C333.957 253.931 333.957 272.257 345.26 283.56C350.5 288.8 357.258 291.612 364.116 291.992C365.89 292.09 367.407 290.732 367.505 288.959C367.603 287.186 366.245 285.668 364.472 285.57C359.133 285.274 353.887 283.09 349.808 279.012C341.017 270.221 341.017 255.967 349.808 247.176L361.936 235.048C370.727 226.257 384.98 226.257 393.771 235.048C402.562 243.84 402.562 258.093 393.771 266.884L387.707 272.948C386.452 274.204 386.452 276.24 387.707 277.496C388.963 278.752 391 278.752 392.255 277.496L398.319 271.432C409.622 260.129 409.622 241.803 398.319 230.501C387.016 219.198 368.691 219.198 357.388 230.501L345.26 242.628Z" fill="#59BBF2"/>
<path opacity="0.5" d="M380.129 285.074C371.337 276.283 371.337 262.029 380.129 253.238L386.192 247.174C387.448 245.919 387.448 243.882 386.192 242.626C384.937 241.371 382.9 241.371 381.645 242.626L375.581 248.69C364.278 259.993 364.278 278.319 375.581 289.622C386.883 300.924 405.209 300.924 416.512 289.622L428.64 277.494C439.942 266.191 439.942 247.865 428.64 236.563C423.399 231.322 416.642 228.51 409.784 228.13C408.01 228.032 406.493 229.39 406.395 231.163C406.297 232.936 407.655 234.454 409.428 234.552C414.767 234.848 420.013 237.032 424.092 241.111C432.883 249.902 432.883 264.155 424.092 272.946L411.964 285.074C403.173 293.865 388.92 293.865 380.129 285.074Z" fill="#59BBF2"/>
<path d="M370.511 68.6835L417.536 73.5795C417.872 73.6146 418.209 73.6497 418.484 73.735C421.514 74.0505 424.285 74.6793 426.802 75.5653C438.648 79.4647 445.663 88.3633 446.796 100.904C447.083 103.6 447.071 106.435 446.762 109.409L441.796 157.107C441.43 160.075 440.857 162.851 440.021 165.43C436.296 177.238 427.61 184.389 415.327 185.776C412.682 186.124 409.841 186.169 406.811 185.853C406.524 185.88 406.187 185.845 405.851 185.81L358.826 180.914C355.964 180.616 353.238 180.105 350.765 179.337C338.329 175.66 330.871 166.659 329.587 153.932C329.244 151.231 329.255 148.396 329.565 145.422L334.537 97.6676C334.847 94.6935 335.419 91.9169 336.249 89.394C340.039 76.9691 349.259 69.5906 362.299 68.5659C364.876 68.3238 367.649 68.3856 370.511 68.6835Z" fill="#F9B5C5"/>
<path d="M365.387 120.619L413.085 125.585L418.484 73.735C421.514 74.0505 424.285 74.6793 426.802 75.5653L424.406 98.5726L446.796 100.904C447.083 103.6 447.071 106.435 446.762 109.409L423.53 106.99L421.503 126.462L444.734 128.881L443.858 137.298L420.626 134.879L418.564 154.688L441.796 157.107C441.43 160.075 440.857 162.851 440.021 165.43L417.688 163.105L415.327 185.776C412.682 186.124 409.841 186.169 406.811 185.853L412.209 134.003L364.511 129.037L359.107 180.943L358.826 180.914C355.964 180.616 353.238 180.105 350.765 179.337L353.167 156.274C352.936 156.307 352.706 156.34 352.482 156.316L329.587 153.932C329.244 151.231 329.255 148.396 329.565 145.422L353.358 147.899C353.582 147.922 353.795 148.058 354.014 148.137L356.094 128.16L331.628 125.613L332.504 117.196L356.97 119.743L358.997 100.271L334.531 97.7237L334.537 97.6676C334.847 94.6935 335.419 91.9169 336.249 89.394L359.706 91.8362C359.762 91.842 359.812 91.904 359.868 91.9098L362.299 68.5659C364.876 68.3238 367.649 68.3856 370.511 68.6835L370.792 68.7128L365.387 120.619V120.619Z" fill="#EF476F"/>
<rect x="111.83" y="149.742" width="230.188" height="230.188" rx="58" transform="rotate(-10.0728 111.83 149.742)" fill="#C1E3FF" stroke="#C1E3FF" stroke-width="8"/>
<g filter="url(#filter0_d_10280_112220)">
<path d="M350.023 175.212L362.282 244.224L340.992 231.64C330.805 225.618 316.526 228.154 309.036 237.317L269.081 286.146C261.591 295.309 247.313 297.845 237.125 291.823L232.709 289.334C223.415 283.738 210.489 285.332 202.51 293.062L153.4 340.361L152.314 341.489C146.511 333.169 142.446 322.786 140.252 310.434L123.383 215.472C116.056 174.223 136.278 145.265 177.526 137.937L272.488 121.069C313.737 113.741 342.695 133.964 350.023 175.212Z" fill="#EAF5FF"/>
<path d="M207.88 230.501C222.775 227.855 232.705 213.635 230.059 198.74C227.413 183.845 213.193 173.915 198.298 176.561C183.403 179.207 173.473 193.427 176.119 208.322C178.765 223.217 192.985 233.147 207.88 230.501Z" fill="#FFB449"/>
<path d="M362.282 244.224L366.891 270.174C374.219 311.422 353.996 340.381 312.748 347.708L217.786 364.577C188.889 369.71 165.885 361.289 152.314 341.489L153.4 340.361L202.511 293.062C210.489 285.332 223.415 283.737 232.709 289.334L237.125 291.822C247.313 297.845 261.591 295.308 269.081 286.146L309.036 237.317C316.527 228.154 330.805 225.618 340.992 231.64L362.282 244.224Z" fill="#12D0AE"/>
</g>
<defs>
<filter id="filter0_d_10280_112220" x="44.998" y="46.6797" width="400.279" height="400.281" filterUnits="userSpaceOnUse" color-interpolation-filters="sRGB">
<feFlood flood-opacity="0" result="BackgroundImageFix"/>
<feColorMatrix in="SourceAlpha" type="matrix" values="0 0 0 0 0 0 0 0 0 0 0 0 0 0 0 0 0 0 127 0" result="hardAlpha"/>
<feOffset dy="4"/>
<feGaussianBlur stdDeviation="20"/>
<feComposite in2="hardAlpha" operator="out"/>
<feColorMatrix type="matrix" values="0 0 0 0 0 0 0 0 0 0 0 0 0 0 0 0 0 0 0.15 0"/>
<feBlend mode="normal" in2="BackgroundImageFix" result="effect1_dropShadow_10280_112220"/>
<feBlend mode="normal" in="SourceGraphic" in2="effect1_dropShadow_10280_112220" result="shape"/>
</filter>
</defs>
</svg>
